# Blender 4.0.1
# www.blender.org
mtllib tank_body_1.mtl
o Body
v 0.509234 -1.094855 1.696103
v 0.077605 -0.663227 3.696103
v 0.509234 -1.094855 3.264475
v 0.940862 -0.663227 3.696103
v 0.940862 0.905145 3.264475
v 0.077605 0.905145 3.264475
v 0.077605 0.905145 2.127732
v 0.940862 0.905145 2.127732
v 0.940862 0.905145 1.264475
v 0.077605 0.905145 1.264475
v 2.077606 -1.094855 3.264475
v 2.509234 -0.663227 3.264475
v 2.077606 0.905145 3.264475
v 2.509234 0.473516 3.264475
v 2.509234 -0.663227 1.264475
v 2.509234 -0.663227 2.127732
v 2.077606 -1.094855 1.696103
v 2.077606 0.905145 1.264475
v 2.077606 0.905145 2.127732
v 2.509234 0.473516 2.127732
v 2.509234 0.473516 1.264475
v 0.077605 0.905145 -3.198283
v 0.940862 0.905145 -3.198283
v 0.077605 -0.663227 -3.629912
v 0.940862 -0.663227 -3.629912
v 0.509234 -1.094855 -3.198283
v 2.077606 -1.094855 -3.198283
v 2.509234 -0.663227 -3.198283
v 2.077606 0.905145 -3.198283
v 2.509234 0.473516 -3.198283
v -2.837718 -0.663227 2.127732
v -2.837718 -0.663227 1.264475
v -2.406089 -1.094855 1.696103
v -2.406089 -1.094855 3.264475
v -2.837718 -0.663227 3.264475
v -2.406089 0.905145 3.264475
v -2.837718 0.473516 3.264475
v -2.406089 0.905145 2.127732
v -2.406089 0.905145 1.264475
v -2.837718 0.473516 1.264475
v -2.837718 0.473516 2.127732
v -2.837718 0.473516 -3.198283
v -2.406089 0.905145 -3.198283
v -2.406089 -1.094855 -3.198283
v -2.837718 -0.663227 -3.198283
v 0.284664 0.473516 -3.836970
v -0.129453 0.473516 -3.836970
v 0.733804 0.473516 -3.836970
v 1.147921 0.473516 -3.836970
v 2.077606 -0.456168 -3.836970
v 2.135650 -0.663227 -3.571867
v 1.870547 0.473516 -3.836970
v 2.175214 0.571125 -3.434695
v 2.077606 0.266458 -3.836970
v -2.199030 0.473516 -3.836970
v -2.406089 0.266458 -3.836970
v -2.503697 0.571125 -3.434695
v -2.406089 -0.456168 -3.836970
v -2.375766 -0.736433 -3.556706
v 0.733804 0.473516 -4.335694
v 1.147921 0.473516 -4.335694
v 1.147921 0.266458 -4.542753
v 0.733804 0.266458 -4.542753
v -0.129453 0.473516 -4.335694
v 0.284664 0.473516 -4.335694
v 0.284664 0.266458 -4.542753
v -0.129453 0.266458 -4.542753
v 0.077605 -0.663227 -4.335694
v -0.129453 -0.456168 -4.542753
v 0.284664 -0.456168 -4.542753
v 0.733804 -0.456168 -4.542753
v 1.147921 -0.456168 -4.542753
v 0.940862 -0.663227 -4.335694
v 1.870547 -0.663227 -4.335694
v 1.870547 -0.456168 -4.542753
v 2.077606 -0.456168 -4.335694
v 1.870547 0.473516 -4.335694
v 2.077606 0.266458 -4.335694
v 1.870547 0.266458 -4.542753
v -2.199030 0.473516 -4.335694
v -2.199030 0.266458 -4.542753
v -2.406089 0.266458 -4.335694
v -2.406089 -0.456168 -4.335694
v -2.199030 -0.456168 -4.542753
v -2.199030 -0.663227 -4.335694
v -2.406089 0.063146 4.035635
v -1.995719 0.063146 4.446005
v -1.995719 0.473516 4.035635
v -2.406089 -0.252857 4.035635
v -1.995719 -0.663227 4.035635
v -1.995719 -0.252857 4.446005
v 2.077606 -0.252857 4.035635
v 1.667235 -0.252857 4.446005
v 1.667235 -0.663227 4.035635
v 2.077606 0.063146 4.035635
v 1.667235 0.473516 4.035635
v 1.667235 0.063146 4.446005
v 1.351233 0.473516 4.035635
v 0.530492 0.473516 4.035635
v 0.530492 0.063146 4.446005
v 1.351233 0.063146 4.446005
v 0.487976 0.473516 4.035635
v -0.332765 0.473516 4.035635
v -0.332765 0.063146 4.446005
v 0.487976 0.063146 4.446005
v -0.332765 -0.252857 4.446005
v 0.077605 -0.663227 4.035635
v 0.487976 -0.252857 4.446005
v 0.530492 -0.252857 4.446005
v 0.940862 -0.663227 4.035635
v 1.351233 -0.252857 4.446005
v -0.332765 0.473516 4.106473
v 0.487976 0.473516 4.106473
v 1.351233 0.473516 4.106473
v 0.530492 0.473516 4.106473
v 2.017508 -0.808314 3.551016
v 2.077606 -0.252857 4.106473
v 1.667235 0.473516 4.106473
v 2.077606 0.063146 4.106473
v 2.271056 0.666967 3.309203
v -2.406089 -0.252857 4.106473
v -2.521128 -0.663227 3.581064
v -1.995719 0.473516 4.106473
v -2.599540 0.666967 3.309203
v -2.406089 0.063146 4.106473
v 3.505184 -0.663227 1.264475
v 3.505184 -0.663227 2.127732
v 3.505184 0.473516 2.127732
v 3.505184 0.473516 1.264475
v -3.833667 -0.663227 2.127732
v -3.833667 -0.663227 1.264475
v -3.833667 0.473516 1.264475
v -3.833667 0.473516 2.127732
v 3.505184 -0.663227 3.264475
v 3.505184 0.473516 3.264475
v 3.505184 0.473516 -3.198283
v 3.505184 -0.663227 -3.198283
v -3.833667 -0.663227 3.264475
v -3.833667 0.473516 3.264475
v -3.833667 -0.663227 -3.198283
v -3.833667 0.473516 -3.198283
v 2.509234 1.094871 2.127732
v 2.509234 1.094871 1.264475
v -2.837718 1.094871 1.264475
v -2.837718 1.094871 2.127732
v -3.833667 1.094871 3.264475
v -2.837718 1.094871 3.264475
v -3.833667 1.094871 2.127732
v 2.509234 1.094871 3.264475
v 2.509234 1.094871 -3.198283
v -2.837718 1.094871 -3.198283
v 3.505184 1.094871 2.127732
v 3.505184 1.094871 1.264475
v -3.833667 1.094871 1.264475
v 3.505184 1.094871 3.264475
v 3.505184 1.094871 -3.198283
v -3.833667 1.094871 -3.198283
v 2.509234 -1.141315 1.264475
v 2.509234 -1.141315 2.127732
v -2.837718 -1.141315 2.127732
v -2.837718 -1.141315 1.264475
v 2.509234 -1.141315 3.264475
v 2.509234 -1.141315 -3.198283
v -2.837718 -1.141315 3.264475
v -3.833667 -1.141315 -3.198283
v -2.837718 -1.141315 -3.198283
v -3.833667 -1.141315 1.264475
v 3.505184 -1.141315 1.264475
v 3.505184 -1.141315 2.127732
v -3.833667 -1.141315 2.127732
v 3.505184 -1.141315 3.264475
v 3.505184 -1.141315 -3.198283
v -3.833667 -1.141315 3.264475
v -3.833667 0.473516 3.823898
v -2.837718 0.473516 3.823898
v 2.509234 -0.663227 3.823898
v 2.509234 0.473516 3.823898
v -2.837718 -0.663227 3.823898
v 3.505184 -0.663227 3.823898
v 3.505184 0.473516 3.823898
v -3.833667 -0.663227 3.823898
v -2.837718 1.094871 3.823898
v -3.833667 1.094871 3.823898
v 2.509234 1.094871 3.823898
v 3.505184 1.094871 3.823898
v 3.505184 -1.141315 3.823898
v 2.509234 -1.141315 3.823898
v -2.837718 -1.141315 3.823898
v -3.833667 -1.141315 3.823898
v -2.837718 1.094871 -3.819525
v -2.837718 0.473516 -3.819525
v 2.509234 0.473516 -3.819525
v 2.509234 -0.663227 -3.819525
v -3.833667 -0.663227 -3.819525
v -2.837718 -0.663227 -3.819525
v -2.837718 -1.141315 -3.819525
v 3.505184 0.473516 -3.819525
v 3.505184 -0.663227 -3.819525
v -3.833667 0.473516 -3.819525
v -3.833667 1.094871 -3.819525
v 3.505184 -1.141315 -3.819525
v 2.509234 1.094871 -3.819525
v 3.505184 1.094871 -3.819525
v -3.833667 -1.141315 -3.819525
v 2.509234 -1.141315 -3.819525
v -2.837718 1.094871 -4.474237
v -2.837718 0.473516 -4.474237
v 2.509234 0.473516 -4.474237
v 2.509234 -0.663227 -4.474237
v -3.833667 -0.663227 -4.474237
v -2.837718 -0.663227 -4.474237
v -2.837718 -1.141315 -4.474237
v 3.505184 0.473516 -4.474237
v 3.505184 -0.663227 -4.474237
v -3.833667 0.473516 -4.474237
v -3.833667 1.094871 -4.474237
v 3.505184 -1.141315 -4.474237
v 2.509234 1.094871 -4.474237
v 3.505184 1.094871 -4.474237
v -3.833667 -1.141315 -4.474237
v 2.509234 -1.141315 -4.474237
vn -0.0000 1.0000 -0.0000
vn -0.0000 -1.0000 -0.0000
vn 0.5774 0.5774 -0.5774
vn 1.0000 -0.0000 -0.0000
vn -1.0000 -0.0000 -0.0000
vn 0.8404 0.1265 -0.5270
vn -0.0000 -0.7071 0.7071
vn 0.2694 0.1105 0.9567
vn -0.0355 -0.5972 0.8013
vn 0.7071 -0.7071 -0.0000
vn 0.7071 0.7071 -0.0000
vn -0.5774 0.5773 -0.5774
vn -0.7071 -0.7071 -0.0000
vn -0.7071 -0.0000 0.7071
vn -0.7071 0.7071 -0.0000
vn -0.0000 -0.7071 -0.7071
vn 0.5774 0.5773 0.5774
vn 0.5373 -0.5373 0.6500
vn 0.5774 -0.5774 -0.5774
vn -0.5774 0.5774 0.5773
vn -0.5611 -0.5611 -0.6086
vn -0.5773 -0.5774 0.5774
vn -0.8404 0.1265 -0.5270
vn -0.0000 -0.0000 1.0000
vn -0.0000 -0.0000 -1.0000
vn -0.0000 0.7071 -0.7071
vn 0.5774 -0.5774 -0.5773
vn 0.5774 0.5774 -0.5773
vn -0.5774 0.5774 -0.5773
vn -0.5774 -0.5773 -0.5773
vn -0.0000 0.9718 -0.2358
vn -0.0000 0.7071 0.7071
vn 0.7071 -0.0000 -0.7071
vn -0.7071 -0.0000 -0.7071
vn 0.9336 -0.1531 -0.3240
vn -0.5774 -0.5774 0.5773
vn 0.5774 -0.5774 0.5774
vn 0.5774 0.5774 0.5774
vn -0.5774 0.5773 0.5774
vn -0.0000 0.9718 0.2358
vn 0.7071 -0.0000 0.7071
vn -0.5475 -0.5475 0.6328
vn 0.9809 -0.1479 0.1260
vn -0.9769 -0.0000 0.2139
vn 0.5777 -0.0000 -0.8162
vn 0.5774 -0.5773 -0.5774
vn 0.9718 -0.0000 -0.2358
vn 0.5035 -0.0000 0.8640
vn -0.3151 0.1722 0.9333
vn 0.0271 -0.9958 -0.0874
vn -0.5382 -0.6244 -0.5661
vn -0.5777 -0.0000 -0.8162
vn -0.9718 -0.0000 -0.2358
vn 0.0366 -0.6568 -0.7532
vn -0.0000 0.5777 -0.8162
vn 0.5773 0.5774 -0.5774
vn 0.5774 0.5774 0.5773
vn -0.0000 1.0000 -0.0039
vn -0.9109 -0.3369 -0.2383
vn 0.5294 -0.6279 0.5706
vn -0.0000 0.1846 0.9828
vn -0.1016 -0.9708 0.2173
vn 0.9629 -0.2699 -0.0000
vn 0.9942 -0.0000 -0.1076
vn -0.9736 -0.0108 0.2281
vt 0.875000 0.500000
vt 0.875000 0.500000
vt 0.125000 0.500000
vt 0.321046 0.500000
vt 0.321046 0.500000
vt 0.875000 0.553954
vt 0.875000 0.696046
vt 0.875000 0.696046
vt 0.678954 0.500000
vt 0.821046 0.500000
vt 0.821046 0.500000
vt 0.571046 0.500000
vt 0.625000 0.446046
vt 0.583247 0.458247
vt 0.428954 0.196046
vt 0.428954 0.250000
vt 0.571046 0.053954
vt 0.571046 0.196046
vt 0.519750 0.803954
vt 0.480250 0.803954
vt 0.480250 0.803954
vt 0.428954 0.500000
vt 0.454836 0.446046
vt 0.583247 0.464348
vt 0.571046 0.250000
vt 0.821047 0.553954
vt 0.678954 0.696046
vt 0.678954 0.553954
vt 0.125000 0.696046
vt 0.428954 1.000000
vt 0.375000 1.000000
vt 0.428954 1.000000
vt 0.410818 0.793330
vt 0.571046 0.696046
vt 0.595228 0.731410
vt 0.375000 1.000000
vt 0.421764 1.000000
vt 0.428954 0.500000
vt 0.428954 0.553954
vt 0.571046 0.500000
vt 0.571046 0.250000
vt 0.571046 0.250000
vt 0.428954 0.303954
vt 0.428954 0.420164
vt 0.428954 0.453302
vt 0.583247 0.250000
vt 0.625000 0.250000
vt 0.375000 0.250000
vt 0.428954 0.014380
vt 0.428954 0.053954
vt 0.625000 0.196046
vt 0.545164 0.250000
vt 0.454836 0.250000
vt 0.454836 0.250000
vt 0.454836 0.262941
vt 0.821047 0.696046
vt 0.571046 0.553954
vt 0.321046 0.696046
vt 0.428954 0.696046
vt 0.625000 0.803954
vt 0.595228 0.779772
vt 0.571046 0.750000
vt 0.375000 0.803954
vt 0.428954 0.750000
vt 0.408314 0.808962
vt 0.428954 0.946046
vt 0.375000 0.446046
vt 0.428954 0.453302
vt 0.571046 0.420164
vt 0.571046 0.329836
vt 0.571046 0.329836
vt 0.545164 0.446046
vt 0.545164 0.446046
vt 0.375000 0.053954
vt 0.595228 0.048363
vt 0.625000 0.053954
vt 0.418539 0.250000
vt 0.428954 0.250000
vt 0.571046 0.250000
vt 0.428953 0.250000
vt 0.428954 0.014380
vt 0.875000 0.553954
vt 0.571046 1.000000
vt 0.571046 1.000000
vt 0.571046 1.000000
vt 0.571046 1.000000
vt 0.519750 1.000000
vt 0.480250 1.000000
vt 0.480250 1.000000
vt 0.571046 0.894750
vt 0.571046 0.855250
vt 0.519750 0.971695
vt 0.480250 0.974352
vt 0.480250 0.971695
vt 0.519750 0.855250
vt 0.480250 0.894750
vt 0.480250 0.855250
vt 0.545164 0.250000
vt 0.545164 0.250000
vt 0.545164 0.329836
vt 0.454836 0.420164
vt 0.454836 0.329836
vt 0.419803 0.250000
vt 0.454836 0.291012
vt 0.545164 0.262941
vt 0.545164 0.291012
vt 0.571046 0.303954
vt 0.571046 0.291012
vt 0.571047 0.250000
vt 0.454836 0.446046
vt 0.545164 0.420164
vt 0.454836 0.250000
vt 0.571047 0.250000
vt 0.571046 1.000000
vt 0.519750 0.000000
vt 0.571046 0.000000
vt 0.480250 0.000000
vt 0.428954 0.000000
vt 0.428954 0.855250
vt 0.571046 0.803954
vt 0.607318 1.000000
vt 0.607318 0.779772
vt 0.519750 0.974352
vt 0.519750 0.894750
vt 0.428954 1.000000
vt 0.519750 0.803954
vt 0.480250 0.000000
vt 0.480250 0.946046
vt 0.678954 0.500000
vt 0.428954 0.453302
vt 0.595228 0.036272
vt 0.410818 0.811466
vt 0.625000 0.250000
vt 0.419803 0.250000
vt 0.125000 0.696046
vt 0.519750 1.000000
vt 0.571046 0.894750
vt 0.425326 0.453302
vt 0.545164 0.303954
vt 0.589348 0.250000
vt 0.625000 0.303954
vt 0.571047 0.262941
vt 0.571046 0.946046
vt 0.571046 0.971695
vt 0.428954 0.811466
vt 0.625000 1.000000
vt 0.428954 1.000000
vt 0.480250 1.000000
s 0
usemtl Material.001
f 22/1/1 39/1/1 10/2/1
f 1/3/2 27/4/2 17/5/2
f 7/6/1 36/7/1 6/8/1
f 18/9/1 23/10/1 9/11/1
f 1/3/2 44/3/2 26/3/2
f 156/12/1 202/12/1 150/12/1
f 29/13/3 30/12/3 53/14/3
f 31/15/4 161/16/4 32/16/4
f 139/17/5 148/18/5 133/18/5
f 119/19/5 92/20/5 117/21/5
f 28/22/6 50/23/6 53/24/6
f 40/25/4 145/18/4 41/18/4
f 8/26/1 13/27/1 19/28/1
f 17/5/2 3/29/2 1/3/2
f 2/30/7 3/31/7 4/32/7
f 8/26/1 10/2/1 7/6/1
f 116/33/8 14/34/8 120/35/8
f 34/36/9 2/30/9 122/37/9
f 15/38/10 16/39/10 17/5/10
f 19/28/11 21/40/11 18/9/11
f 47/25/1 80/41/1 55/42/1
f 25/43/2 74/44/2 51/45/2
f 57/46/12 42/25/12 43/47/12
f 31/15/13 32/16/13 33/48/13
f 122/49/14 37/17/14 35/50/14
f 39/47/15 41/18/15 38/51/15
f 56/52/5 83/53/5 58/53/5
f 69/54/16 70/55/16 68/16/16
f 8/26/1 6/8/1 5/56/1
f 19/28/1 9/11/1 8/26/1
f 20/57/5 143/40/5 21/40/5
f 11/58/10 16/39/10 12/59/10
f 13/27/11 20/57/11 19/28/11
f 13/60/17 120/61/17 14/62/17
f 11/63/18 12/64/18 116/65/18
f 11/63/7 4/66/7 3/31/7
f 27/67/19 51/68/19 28/22/19
f 52/69/1 61/70/1 49/71/1
f 50/23/4 78/72/4 54/73/4
f 30/12/11 18/9/11 21/40/11
f 10/2/1 23/10/1 22/1/1
f 27/4/10 15/38/10 17/5/10
f 34/74/13 31/15/13 33/48/13
f 124/75/20 36/76/20 37/17/20
f 38/51/15 37/17/15 36/76/15
f 130/15/5 173/50/5 138/50/5
f 59/77/21 44/48/21 45/78/21
f 40/79/15 43/47/15 42/25/15
f 44/48/13 32/16/13 45/78/13
f 24/16/2 85/80/2 68/16/2
f 34/74/22 122/81/22 35/50/22
f 45/78/23 57/46/23 58/53/23
f 7/6/1 39/1/1 38/82/1
f 3/29/2 33/3/2 1/3/2
f 123/83/2 103/84/2 112/84/2
f 113/85/2 99/86/2 115/86/2
f 104/87/24 91/88/24 106/89/24
f 114/90/2 96/91/2 118/91/2
f 100/92/24 108/93/24 109/94/24
f 97/95/24 111/96/24 93/97/24
f 24/16/2 73/16/2 25/16/2
f 69/54/25 81/98/25 67/99/25
f 62/100/25 75/101/25 72/102/25
f 25/43/16 26/48/16 59/103/16
f 71/104/25 66/105/25 63/106/25
f 61/107/26 63/106/26 60/108/26
f 64/109/26 66/99/26 67/99/26
f 74/44/27 75/101/27 76/110/27
f 77/69/28 78/72/28 79/111/28
f 80/41/29 81/98/29 82/98/29
f 83/53/30 84/112/30 85/80/30
f 56/52/15 80/41/15 82/98/15
f 65/109/1 47/25/1 46/109/1
f 53/24/31 48/113/31 46/109/31
f 66/105/26 60/108/26 63/106/26
f 72/102/25 63/106/25 62/100/25
f 67/99/25 70/55/25 69/54/25
f 102/86/32 88/114/32 100/92/32
f 62/100/26 77/69/26 79/111/26
f 79/111/33 76/110/33 75/101/33
f 84/112/34 82/98/34 81/98/34
f 81/98/26 64/25/26 67/99/26
f 85/80/13 58/53/13 83/53/13
f 74/44/35 50/23/35 51/45/35
f 52/69/11 78/72/11 77/69/11
f 61/25/1 48/113/1 49/25/1
f 48/113/1 65/109/1 46/109/1
f 86/115/20 87/115/20 88/116/20
f 89/117/36 90/118/36 91/117/36
f 92/20/37 93/97/37 94/119/37
f 118/120/38 119/19/38 120/120/38
f 123/116/39 124/116/39 125/115/39
f 87/115/14 89/117/14 91/117/14
f 94/119/15 117/21/15 92/20/15
f 113/85/2 103/84/2 102/86/2
f 96/91/13 119/19/13 118/91/13
f 124/121/40 113/85/40 120/122/40
f 125/115/10 88/116/10 123/116/10
f 106/89/24 105/123/24 104/87/24
f 101/124/24 109/94/24 111/96/24
f 2/30/2 110/32/2 90/125/2
f 93/97/41 95/126/41 97/95/41
f 114/83/2 99/86/2 98/83/2
f 89/117/42 122/118/42 90/118/42
f 119/19/43 116/33/43 120/35/43
f 125/115/44 122/49/44 121/127/44
f 121/127/4 86/115/4 125/115/4
f 139/17/5 130/15/5 138/50/5
f 126/38/4 136/12/4 129/40/4
f 132/79/5 140/78/5 131/16/5
f 128/57/4 134/59/4 127/39/4
f 127/39/4 129/40/4 128/57/4
f 131/16/5 133/18/5 132/79/5
f 140/78/5 167/16/5 131/16/5
f 150/12/5 192/12/5 30/12/5
f 32/16/4 166/78/4 45/78/4
f 157/25/5 199/25/5 141/25/5
f 147/17/4 175/17/4 37/17/4
f 126/38/4 172/22/4 137/22/4
f 163/22/2 201/22/2 172/22/2
f 41/18/4 147/17/4 37/17/4
f 35/50/4 188/50/4 164/50/4
f 173/50/5 181/50/5 138/50/5
f 144/25/1 148/18/1 145/18/1
f 142/57/1 153/40/1 143/40/1
f 145/18/1 146/17/1 147/17/1
f 151/25/1 154/79/1 144/79/1
f 143/40/1 156/12/1 150/12/1
f 149/34/1 152/57/1 142/57/1
f 151/25/1 200/25/1 157/25/1
f 128/57/4 155/34/4 135/34/4
f 129/40/4 152/57/4 128/57/4
f 42/25/4 144/79/4 40/79/4
f 138/50/5 174/17/5 139/17/5
f 21/40/5 150/12/5 30/12/5
f 14/34/5 142/57/5 20/57/5
f 136/12/4 153/40/4 129/40/4
f 133/18/5 154/79/5 132/79/5
f 132/79/5 157/25/5 141/25/5
f 163/22/2 168/38/2 158/38/2
f 160/15/2 167/16/2 161/16/2
f 161/16/2 165/78/2 166/78/2
f 158/38/2 169/39/2 159/39/2
f 159/39/2 171/59/2 162/59/2
f 164/50/2 170/15/2 160/15/2
f 146/17/1 182/17/1 147/17/1
f 134/59/4 169/39/4 127/39/4
f 28/22/5 158/38/5 15/38/5
f 127/39/4 168/38/4 126/38/4
f 15/38/5 159/39/5 16/39/5
f 12/59/5 177/34/5 14/34/5
f 16/39/5 162/59/5 12/59/5
f 35/50/4 160/15/4 31/15/4
f 28/22/5 205/22/5 163/22/5
f 131/16/5 170/15/5 130/15/5
f 175/17/24 183/17/24 174/17/24
f 175/17/24 181/50/24 178/50/24
f 176/59/24 180/34/24 177/34/24
f 180/34/24 184/34/24 177/34/24
f 176/59/24 186/59/24 179/59/24
f 181/50/24 188/50/24 178/50/24
f 149/34/1 185/34/1 155/34/1
f 162/59/5 176/59/5 12/59/5
f 139/17/5 183/17/5 146/17/5
f 135/34/4 179/59/4 134/59/4
f 171/59/2 187/59/2 162/59/2
f 155/34/4 180/34/4 135/34/4
f 134/59/4 186/59/4 171/59/4
f 164/50/2 189/50/2 173/50/2
f 37/17/4 178/50/4 35/50/4
f 14/34/5 184/34/5 149/34/5
f 194/78/5 220/78/5 204/78/5
f 196/78/4 211/78/4 195/78/4
f 205/22/2 217/22/2 201/22/2
f 201/22/4 214/22/4 198/22/4
f 204/78/2 212/78/2 196/78/2
f 192/12/5 209/22/5 193/22/5
f 42/25/4 190/25/4 151/25/4
f 136/12/4 203/12/4 156/12/4
f 166/78/4 195/78/4 45/78/4
f 45/78/4 191/25/4 42/25/4
f 30/12/5 193/22/5 28/22/5
f 137/22/4 197/12/4 136/12/4
f 141/25/5 194/78/5 140/78/5
f 165/78/2 196/78/2 166/78/2
f 140/78/5 204/78/5 165/78/5
f 172/22/4 198/22/4 137/22/4
f 211/78/25 220/78/25 210/78/25
f 211/78/25 215/25/25 207/25/25
f 208/12/25 214/22/25 209/22/25
f 215/25/25 206/25/25 207/25/25
f 208/12/25 219/12/25 213/12/25
f 214/22/25 221/22/25 209/22/25
f 195/78/4 207/25/4 191/25/4
f 193/22/5 221/22/5 205/22/5
f 190/25/1 216/25/1 200/25/1
f 198/22/4 213/12/4 197/12/4
f 203/12/1 218/12/1 202/12/1
f 199/25/5 210/78/5 194/78/5
f 202/12/5 208/12/5 192/12/5
f 200/25/5 215/25/5 199/25/5
f 191/25/4 206/25/4 190/25/4
f 197/12/4 219/12/4 203/12/4
f 110/66/7 111/128/7 109/94/7
f 22/1/1 43/1/1 39/1/1
f 1/3/2 26/3/2 27/4/2
f 7/6/1 38/82/1 36/7/1
f 18/9/1 29/129/1 23/10/1
f 1/3/2 33/3/2 44/3/2
f 156/12/1 203/12/1 202/12/1
f 31/15/4 160/15/4 161/16/4
f 139/17/5 146/17/5 148/18/5
f 119/19/5 95/126/5 92/20/5
f 53/24/45 30/12/45 28/22/45
f 28/22/46 51/130/46 50/23/46
f 50/23/47 54/73/47 53/24/47
f 40/25/4 144/25/4 145/18/4
f 8/26/1 5/56/1 13/27/1
f 17/5/2 11/58/2 3/29/2
f 8/26/1 9/11/1 10/2/1
f 116/33/48 12/59/48 14/34/48
f 34/36/7 3/31/7 2/30/7
f 19/28/11 20/57/11 21/40/11
f 47/25/1 64/25/1 80/41/1
f 25/43/2 73/43/2 74/44/2
f 122/49/49 124/131/49 37/17/49
f 39/47/15 40/25/15 41/18/15
f 56/52/5 82/98/5 83/53/5
f 72/102/16 75/101/16 74/44/16
f 72/102/16 74/44/16 73/43/16
f 71/104/16 72/102/16 73/43/16
f 68/16/16 85/80/16 84/112/16
f 71/104/16 73/43/16 68/16/16
f 70/55/16 71/104/16 68/16/16
f 68/16/16 84/112/16 69/54/16
f 8/26/1 7/6/1 6/8/1
f 19/28/1 18/9/1 9/11/1
f 20/57/5 142/57/5 143/40/5
f 11/58/10 17/5/10 16/39/10
f 13/27/11 14/34/11 20/57/11
f 11/63/7 116/132/7 4/66/7
f 52/69/1 77/69/1 61/70/1
f 50/23/4 76/110/4 78/72/4
f 30/12/11 29/129/11 18/9/11
f 10/2/1 9/11/1 23/10/1
f 27/4/10 28/22/10 15/38/10
f 34/74/13 35/50/13 31/15/13
f 38/51/15 41/18/15 37/17/15
f 130/15/5 170/15/5 173/50/5
f 40/79/15 39/133/15 43/47/15
f 44/48/13 33/48/13 32/16/13
f 24/16/50 59/16/50 85/80/50
f 58/53/51 59/134/51 45/78/51
f 45/78/52 42/25/52 57/46/52
f 57/46/53 56/52/53 58/53/53
f 7/6/1 10/2/1 39/1/1
f 3/29/2 34/135/2 33/3/2
f 123/83/2 88/114/2 103/84/2
f 113/85/2 102/86/2 99/86/2
f 104/87/24 87/136/24 91/88/24
f 114/90/2 98/137/2 96/91/2
f 100/92/24 105/123/24 108/93/24
f 97/95/24 101/124/24 111/96/24
f 24/16/2 68/16/2 73/16/2
f 69/54/25 84/112/25 81/98/25
f 62/100/25 79/111/25 75/101/25
f 59/103/16 24/16/16 25/43/16
f 25/43/54 51/138/54 27/67/54
f 26/48/16 44/48/16 59/103/16
f 25/43/16 27/67/16 26/48/16
f 71/104/25 70/55/25 66/105/25
f 61/107/26 62/139/26 63/106/26
f 64/109/26 65/109/26 66/99/26
f 56/52/15 55/42/15 80/41/15
f 65/109/1 64/25/1 47/25/1
f 57/140/55 43/47/55 22/47/55
f 23/141/55 29/13/55 53/24/55
f 57/140/55 22/47/55 23/141/55
f 55/42/12 56/52/12 57/140/12
f 47/25/31 55/42/31 57/140/31
f 57/140/55 23/141/55 53/24/55
f 53/24/56 54/73/56 52/69/56
f 53/24/31 52/69/31 49/25/31
f 47/25/31 57/140/31 53/24/31
f 46/109/31 47/25/31 53/24/31
f 53/24/31 49/25/31 48/113/31
f 66/105/26 65/142/26 60/108/26
f 72/102/25 71/104/25 63/106/25
f 67/99/25 66/105/25 70/55/25
f 97/95/57 95/126/57 96/91/57
f 98/143/2 99/144/2 102/86/2
f 97/95/32 96/91/32 98/143/32
f 100/92/25 101/124/25 97/95/25
f 104/87/58 105/123/58 100/92/58
f 88/114/32 87/136/32 104/87/32
f 102/86/1 103/84/1 88/114/1
f 97/95/32 98/143/32 102/86/32
f 88/114/32 104/87/32 100/92/32
f 100/92/32 97/95/32 102/86/32
f 62/100/26 61/70/26 77/69/26
f 79/111/33 78/72/33 76/110/33
f 84/112/34 83/53/34 82/98/34
f 81/98/26 80/41/26 64/25/26
f 85/80/59 59/16/59 58/53/59
f 74/44/10 76/110/10 50/23/10
f 52/69/11 54/73/11 78/72/11
f 61/25/1 60/25/1 48/113/1
f 48/113/1 60/25/1 65/109/1
f 87/115/14 86/115/14 89/117/14
f 94/119/60 116/145/60 117/21/60
f 113/85/2 112/84/2 103/84/2
f 96/91/13 95/126/13 119/19/13
f 120/122/61 13/60/61 5/146/61
f 6/146/61 36/146/61 124/121/61
f 120/122/61 5/146/61 6/146/61
f 114/90/40 118/91/40 120/122/40
f 115/86/40 114/90/40 120/122/40
f 120/122/61 6/146/61 124/121/61
f 124/121/40 123/83/40 112/84/40
f 113/85/40 115/86/40 120/122/40
f 124/121/40 112/84/40 113/85/40
f 125/115/10 86/115/10 88/116/10
f 106/89/24 108/93/24 105/123/24
f 101/124/24 100/92/24 109/94/24
f 4/66/62 116/145/62 94/119/62
f 110/32/1 107/30/1 90/125/1
f 4/66/2 94/119/2 110/32/2
f 90/125/2 122/147/2 2/30/2
f 2/30/2 4/66/2 110/32/2
f 93/97/41 92/20/41 95/126/41
f 114/83/2 115/86/2 99/86/2
f 89/117/63 121/127/63 122/118/63
f 119/19/64 117/21/64 116/33/64
f 125/115/65 124/131/65 122/49/65
f 121/127/4 89/117/4 86/115/4
f 139/17/5 133/18/5 130/15/5
f 126/38/4 137/22/4 136/12/4
f 132/79/5 141/25/5 140/78/5
f 128/57/4 135/34/4 134/59/4
f 127/39/4 126/38/4 129/40/4
f 131/16/5 130/15/5 133/18/5
f 140/78/5 165/78/5 167/16/5
f 150/12/5 202/12/5 192/12/5
f 32/16/4 161/16/4 166/78/4
f 157/25/5 200/25/5 199/25/5
f 147/17/4 182/17/4 175/17/4
f 126/38/4 168/38/4 172/22/4
f 163/22/2 205/22/2 201/22/2
f 41/18/4 145/18/4 147/17/4
f 35/50/4 178/50/4 188/50/4
f 173/50/5 189/50/5 181/50/5
f 144/25/1 154/25/1 148/18/1
f 142/57/1 152/57/1 153/40/1
f 145/18/1 148/18/1 146/17/1
f 151/25/1 157/25/1 154/79/1
f 143/40/1 153/40/1 156/12/1
f 149/34/1 155/34/1 152/57/1
f 151/25/1 190/25/1 200/25/1
f 128/57/4 152/57/4 155/34/4
f 129/40/4 153/40/4 152/57/4
f 42/25/4 151/25/4 144/79/4
f 138/50/5 181/50/5 174/17/5
f 21/40/5 143/40/5 150/12/5
f 14/34/5 149/34/5 142/57/5
f 136/12/4 156/12/4 153/40/4
f 133/18/5 148/18/5 154/79/5
f 132/79/5 154/79/5 157/25/5
f 163/22/2 172/22/2 168/38/2
f 160/15/2 170/15/2 167/16/2
f 161/16/2 167/16/2 165/78/2
f 158/38/2 168/38/2 169/39/2
f 159/39/2 169/39/2 171/59/2
f 164/50/2 173/50/2 170/15/2
f 146/17/1 183/17/1 182/17/1
f 134/59/4 171/59/4 169/39/4
f 28/22/5 163/22/5 158/38/5
f 127/39/4 169/39/4 168/38/4
f 15/38/5 158/38/5 159/39/5
f 12/59/5 176/59/5 177/34/5
f 16/39/5 159/39/5 162/59/5
f 35/50/4 164/50/4 160/15/4
f 28/22/5 193/22/5 205/22/5
f 131/16/5 167/16/5 170/15/5
f 175/17/24 182/17/24 183/17/24
f 175/17/24 174/17/24 181/50/24
f 176/59/24 179/59/24 180/34/24
f 180/34/24 185/34/24 184/34/24
f 176/59/24 187/59/24 186/59/24
f 181/50/24 189/50/24 188/50/24
f 149/34/1 184/34/1 185/34/1
f 162/59/5 187/59/5 176/59/5
f 139/17/5 174/17/5 183/17/5
f 135/34/4 180/34/4 179/59/4
f 171/59/2 186/59/2 187/59/2
f 155/34/4 185/34/4 180/34/4
f 134/59/4 179/59/4 186/59/4
f 164/50/2 188/50/2 189/50/2
f 37/17/4 175/17/4 178/50/4
f 14/34/5 177/34/5 184/34/5
f 194/78/5 210/78/5 220/78/5
f 196/78/4 212/78/4 211/78/4
f 205/22/2 221/22/2 217/22/2
f 201/22/4 217/22/4 214/22/4
f 204/78/2 220/78/2 212/78/2
f 192/12/5 208/12/5 209/22/5
f 42/25/4 191/25/4 190/25/4
f 136/12/4 197/12/4 203/12/4
f 166/78/4 196/78/4 195/78/4
f 45/78/4 195/78/4 191/25/4
f 30/12/5 192/12/5 193/22/5
f 137/22/4 198/22/4 197/12/4
f 141/25/5 199/25/5 194/78/5
f 165/78/2 204/78/2 196/78/2
f 140/78/5 194/78/5 204/78/5
f 172/22/4 201/22/4 198/22/4
f 211/78/25 212/78/25 220/78/25
f 211/78/25 210/78/25 215/25/25
f 208/12/25 213/12/25 214/22/25
f 215/25/25 216/25/25 206/25/25
f 208/12/25 218/12/25 219/12/25
f 214/22/25 217/22/25 221/22/25
f 195/78/4 211/78/4 207/25/4
f 193/22/5 209/22/5 221/22/5
f 190/25/1 206/25/1 216/25/1
f 198/22/4 214/22/4 213/12/4
f 203/12/1 219/12/1 218/12/1
f 199/25/5 215/25/5 210/78/5
f 202/12/5 218/12/5 208/12/5
f 200/25/5 216/25/5 215/25/5
f 191/25/4 207/25/4 206/25/4
f 197/12/4 213/12/4 219/12/4
f 106/89/7 91/88/7 90/125/7
f 106/89/7 90/125/7 107/30/7
f 108/148/7 106/89/7 107/30/7
f 110/66/7 94/119/7 93/97/7
f 108/148/7 107/30/7 110/66/7
f 109/94/7 108/148/7 110/66/7
f 110/66/7 93/97/7 111/128/7
